<svg width="16" height="16" viewBox="0 0 16 16" fill="none" xmlns="http://www.w3.org/2000/svg">
<path d="M7.99993 9.63339L2.28327 15.3501C2.06938 15.5639 1.79716 15.6709 1.4666 15.6709C1.13605 15.6709 0.863823 15.5639 0.649934 15.3501C0.436046 15.1362 0.329102 14.8639 0.329102 14.5334C0.329102 14.2028 0.436046 13.9306 0.649934 13.7167L6.3666 8.00006L0.649934 2.28339C0.436046 2.0695 0.329102 1.79728 0.329102 1.46672C0.329102 1.13617 0.436046 0.863945 0.649934 0.650057C0.863823 0.436168 1.13605 0.329224 1.4666 0.329224C1.79716 0.329224 2.06938 0.436168 2.28327 0.650057L7.99993 6.36672L13.7166 0.650057C13.9305 0.436168 14.2027 0.329224 14.5333 0.329224C14.8638 0.329224 15.136 0.436168 15.3499 0.650057C15.5638 0.863945 15.6708 1.13617 15.6708 1.46672C15.6708 1.79728 15.5638 2.0695 15.3499 2.28339L9.63327 8.00006L15.3499 13.7167C15.5638 13.9306 15.6708 14.2028 15.6708 14.5334C15.6708 14.8639 15.5638 15.1362 15.3499 15.3501C15.136 15.5639 14.8638 15.6709 14.5333 15.6709C14.2027 15.6709 13.9305 15.5639 13.7166 15.3501L7.99993 9.63339Z" fill="#272727"/>
</svg>
