<svg width="32" height="32" viewBox="0 0 32 32" fill="none" xmlns="http://www.w3.org/2000/svg">
<path d="M16 8.5C14.5166 8.5 13.0666 8.93987 11.8332 9.76398C10.5999 10.5881 9.63856 11.7594 9.0709 13.1299C8.50325 14.5003 8.35472 16.0083 8.64411 17.4632C8.9335 18.918 9.64781 20.2544 10.6967 21.3033C11.7456 22.3522 13.082 23.0665 14.5368 23.3559C15.9917 23.6453 17.4997 23.4968 18.8701 22.9291C20.2406 22.3614 21.4119 21.4001 22.236 20.1668C23.0601 18.9334 23.5 17.4834 23.5 16C23.5 14.0109 22.7098 12.1032 21.3033 10.6967C19.8968 9.29018 17.9891 8.5 16 8.5ZM16 21C15.0111 21 14.0444 20.7068 13.2221 20.1573C12.3999 19.6079 11.759 18.827 11.3806 17.9134C11.0022 16.9998 10.9031 15.9945 11.0961 15.0245C11.289 14.0546 11.7652 13.1637 12.4645 12.4645C13.1637 11.7652 14.0546 11.289 15.0245 11.0961C15.9945 10.9031 16.9998 11.0022 17.9134 11.3806C18.827 11.759 19.6079 12.3999 20.1573 13.2221C20.7068 14.0444 21 15.0111 21 16C20.9959 17.3248 20.4678 18.5942 19.531 19.531C18.5942 20.4678 17.3248 20.9959 16 21ZM22.875 0.375H9.125C6.80436 0.375 4.57876 1.29687 2.93782 2.93782C1.29687 4.57876 0.375 6.80436 0.375 9.125V22.875C0.375 25.1956 1.29687 27.4212 2.93782 29.0622C4.57876 30.7031 6.80436 31.625 9.125 31.625H22.875C25.1956 31.625 27.4212 30.7031 29.0622 29.0622C30.7031 27.4212 31.625 25.1956 31.625 22.875V9.125C31.625 6.80436 30.7031 4.57876 29.0622 2.93782C27.4212 1.29687 25.1956 0.375 22.875 0.375ZM29.125 22.875C29.125 23.6958 28.9633 24.5085 28.6492 25.2668C28.3352 26.0251 27.8748 26.7141 27.2944 27.2944C26.7141 27.8748 26.0251 28.3352 25.2668 28.6492C24.5085 28.9633 23.6958 29.125 22.875 29.125H9.125C8.30424 29.125 7.49151 28.9633 6.73323 28.6492C5.97494 28.3352 5.28595 27.8748 4.70558 27.2944C4.12522 26.7141 3.66484 26.0251 3.35075 25.2668C3.03666 24.5085 2.875 23.6958 2.875 22.875V9.125C2.875 7.4674 3.53348 5.87769 4.70558 4.70558C5.87769 3.53348 7.4674 2.875 9.125 2.875H22.875C23.6958 2.875 24.5085 3.03666 25.2668 3.35075C26.0251 3.66484 26.7141 4.12522 27.2944 4.70558C27.8748 5.28595 28.3352 5.97494 28.6492 6.73323C28.9633 7.49151 29.125 8.30424 29.125 9.125V22.875ZM26 7.875C26 8.24584 25.89 8.60835 25.684 8.91669C25.478 9.22504 25.1851 9.46536 24.8425 9.60727C24.4999 9.74919 24.1229 9.78632 23.7592 9.71397C23.3955 9.64163 23.0614 9.46305 22.7992 9.20083C22.537 8.9386 22.3584 8.60451 22.286 8.2408C22.2137 7.87708 22.2508 7.50008 22.3927 7.15747C22.5346 6.81486 22.775 6.52202 23.0833 6.31599C23.3916 6.10997 23.7542 6 24.125 6C24.6223 6 25.0992 6.19754 25.4508 6.54917C25.8025 6.90081 26 7.37772 26 7.875Z" fill="#272727"/>
</svg>
