<svg width="28" height="30" viewBox="0 0 28 30" fill="none" xmlns="http://www.w3.org/2000/svg">
<path d="M21.6667 4.7C21.6667 4.7 22.5167 5.53333 21.6667 4.7C20.5274 3.39937 19.8995 1.72905 19.9 0H14.75V20.6667C14.7103 21.785 14.2381 22.8444 13.4329 23.6216C12.6278 24.3988 11.5524 24.8332 10.4333 24.8333C8.06667 24.8333 6.1 22.9 6.1 20.5C6.1 17.6333 8.86667 15.4833 11.7167 16.3667V11.1C5.96667 10.3333 0.933334 14.8 0.933334 20.5C0.933334 26.05 5.53334 30 10.4167 30C15.65 30 19.9 25.75 19.9 20.5V10.0167C21.9883 11.5164 24.4956 12.3211 27.0667 12.3167V7.16667C27.0667 7.16667 23.9333 7.31667 21.6667 4.7Z" fill="#272727"/>
</svg>
