<svg width="32" height="32" viewBox="0 0 32 32" fill="none" xmlns="http://www.w3.org/2000/svg">
<path d="M16 0.0625007C13.2209 0.0629537 10.4902 0.790108 8.0789 2.17181C5.6676 3.55351 3.65951 5.54173 2.25389 7.93917C0.84828 10.3366 0.0940043 13.0599 0.0659123 15.8389C0.0378203 18.6179 0.736889 21.3559 2.09375 23.7812L0.71875 28.5781C0.60647 28.9536 0.597852 29.3524 0.693809 29.7323C0.789767 30.1122 0.986726 30.4591 1.26381 30.7362C1.5409 31.0133 1.88778 31.2102 2.26771 31.3062C2.64764 31.4021 3.04645 31.3935 3.42188 31.2812L8.21875 29.9062C10.3442 31.0963 12.7142 31.7832 15.1466 31.9144C17.579 32.0455 20.0091 31.6174 22.2502 30.6628C24.4913 29.7082 26.4837 28.2526 28.0745 26.4078C29.6653 24.563 30.812 22.3781 31.4266 20.021C32.0411 17.6639 32.1072 15.1972 31.6197 12.8106C31.1323 10.4239 30.1042 8.18077 28.6145 6.25344C27.1248 4.32612 25.2131 2.76591 23.0264 1.69269C20.8396 0.61947 18.4359 0.0617913 16 0.0625007ZM16 30.0625C13.476 30.0618 10.9988 29.3817 8.82812 28.0938C8.67892 28.0141 8.51286 27.9713 8.34375 27.9688C8.2592 27.9637 8.17445 27.9743 8.09375 28L2.90625 29.4844C2.85195 29.5011 2.79413 29.5027 2.73899 29.489C2.68385 29.4753 2.63349 29.4469 2.59332 29.4067C2.55314 29.3665 2.52468 29.3161 2.51099 29.261C2.49731 29.2059 2.49891 29.148 2.51563 29.0938L4 23.9062C4.03504 23.7839 4.0448 23.6557 4.02869 23.5294C4.01257 23.4032 3.97091 23.2815 3.90625 23.1719C2.32386 20.503 1.66856 17.3857 2.04241 14.3056C2.41625 11.2255 3.79826 8.35549 5.97316 6.14265C8.14807 3.92982 10.9937 2.49839 14.0669 2.07134C17.1401 1.64429 20.2683 2.2456 22.9641 3.7816C25.6599 5.3176 27.7721 7.70205 28.9716 10.5635C30.1711 13.425 30.3905 16.6029 29.5958 19.6021C28.801 22.6013 27.0367 25.2534 24.5776 27.1454C22.1185 29.0374 19.1027 30.063 16 30.0625ZM24.0469 18.625L20.8438 16.7969C20.5066 16.6067 20.125 16.5094 19.738 16.5149C19.3509 16.5204 18.9722 16.6285 18.6406 16.8281L16.6406 18.0313C15.5039 17.4264 14.5736 16.4961 13.9688 15.3594L15.1719 13.3594C15.3715 13.0278 15.4796 12.6491 15.4851 12.262C15.4906 11.875 15.3933 11.4934 15.2031 11.1563L13.375 7.95313C13.1975 7.64567 12.9425 7.39011 12.6355 7.21191C12.3284 7.03371 11.98 6.9391 11.625 6.9375C10.2187 6.93749 8.86985 7.49506 7.87401 8.48797C6.87817 9.48088 6.31664 10.8281 6.3125 12.2344C6.31045 14.0003 6.6565 15.7494 7.33088 17.3815C8.00526 19.0136 8.99473 20.4968 10.2427 21.7462C11.4907 22.9957 12.9727 23.9869 14.6041 24.6631C16.2354 25.3394 17.984 25.6875 19.75 25.6875H19.7656C21.1719 25.6834 22.5191 25.1218 23.512 24.126C24.5049 23.1302 25.0625 21.7813 25.0625 20.375C25.0609 20.02 24.9663 19.6716 24.7881 19.3645C24.6099 19.0575 24.3543 18.8025 24.0469 18.625ZM19.7656 23.8125H19.75C16.682 23.8084 13.7411 22.5867 11.5731 20.4158C9.40519 18.245 8.1875 15.3024 8.1875 12.2344C8.19163 11.3254 8.55562 10.4551 9.19983 9.81379C9.84404 9.17251 10.716 8.81249 11.625 8.8125C11.6732 8.81645 11.7179 8.83884 11.75 8.875L13.5781 12.0781C13.6032 12.127 13.615 12.1816 13.6122 12.2365C13.6095 12.2913 13.5923 12.3445 13.5625 12.3906L12.1094 14.8438C12.0271 14.97 11.9782 15.1151 11.9673 15.2654C11.9564 15.4157 11.9837 15.5663 12.0469 15.7031C12.9011 17.5884 14.4116 19.0989 16.2969 19.9531C16.4337 20.0163 16.5843 20.0436 16.7346 20.0327C16.8849 20.0218 17.03 19.9729 17.1562 19.8906L19.6094 18.4375C19.6555 18.4077 19.7087 18.3905 19.7635 18.3878C19.8184 18.385 19.873 18.3968 19.9219 18.4219L23.125 20.25C23.1612 20.2821 23.1836 20.3268 23.1875 20.375C23.1875 21.284 22.8275 22.156 22.1862 22.8002C21.5449 23.4444 20.6746 23.8084 19.7656 23.8125Z" fill="#272727"/>
</svg>
