<svg width="24" height="24" viewBox="0 0 24 24" fill="none" xmlns="http://www.w3.org/2000/svg">
<path d="M6.4 20.4C6.06667 20.5333 5.75 20.504 5.45 20.312C5.15 20.1207 5 19.8417 5 19.475V5C5 4.45 5.196 3.979 5.588 3.587C5.97933 3.19567 6.45 3 7 3H13V5H7V17.95L12 15.8L17 17.95V11H19V19.475C19 19.8417 18.85 20.1207 18.55 20.312C18.25 20.504 17.9333 20.5333 17.6 20.4L12 18L6.4 20.4ZM7 5H13H12H7ZM18 9C17.7167 9 17.4793 8.904 17.288 8.712C17.096 8.52067 17 8.28333 17 8V7H16C15.7167 7 15.4793 6.90433 15.288 6.713C15.096 6.521 15 6.28333 15 6C15 5.71667 15.096 5.479 15.288 5.287C15.4793 5.09567 15.7167 5 16 5H17V4C17 3.71667 17.096 3.479 17.288 3.287C17.4793 3.09567 17.7167 3 18 3C18.2833 3 18.5207 3.09567 18.712 3.287C18.904 3.479 19 3.71667 19 4V5H20C20.2833 5 20.5207 5.09567 20.712 5.287C20.904 5.479 21 5.71667 21 6C21 6.28333 20.904 6.521 20.712 6.713C20.5207 6.90433 20.2833 7 20 7H19V8C19 8.28333 18.904 8.52067 18.712 8.712C18.5207 8.904 18.2833 9 18 9Z" fill="#454141"/>
</svg>
