<svg width="18" height="18" viewBox="0 0 18 18" fill="none" xmlns="http://www.w3.org/2000/svg">
<path d="M9 1.5C4.85775 1.5 1.5 4.85775 1.5 9C1.5 13.1422 4.85775 16.5 9 16.5C13.1422 16.5 16.5 13.1422 16.5 9C16.5 4.85775 13.1422 1.5 9 1.5Z" stroke="#272727" stroke-width="1.5" stroke-linecap="round" stroke-linejoin="round"/>
<path d="M3.20312 13.7595C3.20312 13.7595 4.87488 11.625 8.99988 11.625C13.1249 11.625 14.7974 13.7595 14.7974 13.7595M8.99988 9C9.59661 9 10.1689 8.76295 10.5909 8.34099C11.0128 7.91903 11.2499 7.34674 11.2499 6.75C11.2499 6.15326 11.0128 5.58097 10.5909 5.15901C10.1689 4.73705 9.59661 4.5 8.99988 4.5C8.40314 4.5 7.83084 4.73705 7.40888 5.15901C6.98693 5.58097 6.74988 6.15326 6.74988 6.75C6.74988 7.34674 6.98693 7.91903 7.40888 8.34099C7.83084 8.76295 8.40314 9 8.99988 9V9Z" stroke="#272727" stroke-width="1.5" stroke-linecap="round" stroke-linejoin="round"/>
</svg>
