<svg width="34" height="28" viewBox="0 0 34 28" fill="none" xmlns="http://www.w3.org/2000/svg">
<path d="M30.3333 7.33329L17 15.6666L3.66667 7.33329V3.99996L17 12.3333L30.3333 3.99996M30.3333 0.666626H3.66667C1.81667 0.666626 0.333334 2.14996 0.333334 3.99996V24C0.333334 24.884 0.684523 25.7319 1.30964 26.357C1.93477 26.9821 2.78261 27.3333 3.66667 27.3333H30.3333C31.2174 27.3333 32.0652 26.9821 32.6904 26.357C33.3155 25.7319 33.6667 24.884 33.6667 24V3.99996C33.6667 3.1159 33.3155 2.26806 32.6904 1.64294C32.0652 1.01782 31.2174 0.666626 30.3333 0.666626Z" fill="#272727"/>
</svg>
