<svg width="40" height="40" viewBox="0 0 40 40" fill="none" xmlns="http://www.w3.org/2000/svg">
<path d="M39.9809 20.3742C39.9809 18.7355 39.8448 17.5396 39.5503 16.2994H20.3984V23.6961H31.6402C31.4136 25.5342 30.1897 28.3025 27.4698 30.1626L27.4317 30.4103L33.4872 34.9939L33.9067 35.0349C37.7597 31.5579 39.9809 26.4422 39.9809 20.3742Z" fill="#4285F4"/>
<path d="M20.3984 39.8626C25.9059 39.8626 30.5295 38.0908 33.9067 35.0348L27.4698 30.1626C25.7473 31.3363 23.4355 32.1557 20.3984 32.1557C15.0042 32.1557 10.4259 28.6789 8.79391 23.8733L8.55469 23.8931L2.25812 28.6545L2.17578 28.8782C5.53016 35.389 12.4203 39.8626 20.3984 39.8626Z" fill="#34A853"/>
<path d="M8.79391 23.8733C8.36328 22.6331 8.11406 21.3043 8.11406 19.9313C8.11406 18.5582 8.36328 17.2295 8.77125 15.9893L8.75984 15.7252L2.38438 10.8873L2.17578 10.9843C0.793281 13.6861 0 16.7202 0 19.9313C0 23.1424 0.793281 26.1763 2.17578 28.8782L8.79391 23.8733Z" fill="#FBBC05"/>
<path d="M20.3984 7.70672C24.2288 7.70672 26.8125 9.32336 28.2858 10.6744L34.0427 5.18214C30.507 1.97099 25.9059 0 20.3984 0C12.4203 0 5.53016 4.47343 2.17578 10.9843L8.77125 15.9893C10.4259 11.1837 15.0042 7.70672 20.3984 7.70672Z" fill="#EB4335"/>
</svg>
